# xmcd
#
# Track frame offsets:
#	150
#	13692
#	27682
#	45812
#	61545
#	85805
#	103847
#	118407
#	139472
#	152147
#
# Disc length: 2227 seconds
#
# Revision: 5
# Processed by: cddbd v1.5.2PL0 Copyright (c) Steve Scherf et al.
# Submitted via: audiograbber 1.83.01
#
DISCID=8208b10a
DTITLE=Various Artist - Today's Hit Country
DYEAR=1993
DGENRE=Oldies
TTITLE0=Brooks and Dunn - Brand New Man
TTITLE1=Mark Chesnutt - Brother Jukebox
TTITLE2=Vince Gill - Look At Us
TTITLE3=Alabama - Down Home
TTITLE4=Judds - Love Can Build A Bridge
TTITLE5=John Anderson - Seminole Wind
TTITLE6=Diamond Rio - Mirror, Mirror
TTITLE7=Lorrie Morgan - Something In Red
TTITLE8=Aaron Tippin - There Ain't Nothing Wrong With The Radio
TTITLE9=Pam Tillis - Maybe It Was Memphis
EXTD=
EXTT0=
EXTT1=
EXTT2=
EXTT3=
EXTT4=
EXTT5=
EXTT6=
EXTT7=
EXTT8=
EXTT9=
PLAYORDER=
